{
    "asset" : {
        "generator" : "Khronos glTF Blender I/O v1.6.16",
        "version" : "2.0"
    },
    "scene" : 0,
    "scenes" : [
        {
            "name" : "Scene",
            "nodes" : [
                4
            ]
        }
    ],
    "nodes" : [
        {
            "mesh" : 0,
            "name" : "Cube",
            "translation" : [
                -1.0529510974884033,
                0.16908663511276245,
                0.8693673610687256
            ]
        },
        {
            "children" : [
                0
            ],
            "name" : "\u041f\u0443\u0441\u0442\u044b\u0448\u043a\u0430",
            "rotation" : [
                0.4407307803630829,
                0.11222147196531296,
                0.6019793748855591,
                0.656341016292572
            ]
        },
        {
            "children" : [
                1
            ],
            "name" : "\u041f\u0443\u0441\u0442\u044b\u0448\u043a\u0430.001",
            "rotation" : [
                -0.32821860909461975,
                -0.29645565152168274,
                0.37858012318611145,
                0.8130581974983215
            ],
            "translation" : [
                -1.3830569982528687,
                -1.3133909702301025,
                0
            ]
        },
        {
            "name" : "Bone"
        },
        {
            "children" : [
                2,
                3
            ],
            "name" : "Armature",
            "rotation" : [
                0.014590228907763958,
                0.03397605940699577,
                -0.9182320237159729,
                0.394313246011734
            ]
        }
    ],
    "animations" : [
        {
            "channels" : [
                {
                    "sampler" : 0,
                    "target" : {
                        "node" : 3,
                        "path" : "translation"
                    }
                },
                {
                    "sampler" : 1,
                    "target" : {
                        "node" : 3,
                        "path" : "rotation"
                    }
                },
                {
                    "sampler" : 2,
                    "target" : {
                        "node" : 3,
                        "path" : "scale"
                    }
                },
                {
                    "sampler" : 3,
                    "target" : {
                        "node" : 4,
                        "path" : "rotation"
                    }
                }
            ],
            "name" : "\u0410\u0440\u043c\u0430\u0442\u0443\u0440\u0430Action",
            "samplers" : [
                {
                    "input" : 4,
                    "interpolation" : "LINEAR",
                    "output" : 5
                },
                {
                    "input" : 4,
                    "interpolation" : "LINEAR",
                    "output" : 6
                },
                {
                    "input" : 4,
                    "interpolation" : "LINEAR",
                    "output" : 7
                },
                {
                    "input" : 4,
                    "interpolation" : "LINEAR",
                    "output" : 8
                }
            ]
        }
    ],
    "meshes" : [
        {
            "name" : "\u041a\u0443\u0431",
            "primitives" : [
                {
                    "attributes" : {
                        "POSITION" : 0,
                        "NORMAL" : 1,
                        "TEXCOORD_0" : 2
                    },
                    "indices" : 3
                }
            ]
        }
    ],
    "accessors" : [
        {
            "bufferView" : 0,
            "componentType" : 5126,
            "count" : 24,
            "max" : [
                0.21582463383674622,
                0.1828949749469757,
                0.27821820974349976
            ],
            "min" : [
                -0.21582463383674622,
                -0.1828949749469757,
                -0.27821820974349976
            ],
            "type" : "VEC3"
        },
        {
            "bufferView" : 1,
            "componentType" : 5126,
            "count" : 24,
            "type" : "VEC3"
        },
        {
            "bufferView" : 2,
            "componentType" : 5126,
            "count" : 24,
            "type" : "VEC2"
        },
        {
            "bufferView" : 3,
            "componentType" : 5123,
            "count" : 36,
            "type" : "SCALAR"
        },
        {
            "bufferView" : 4,
            "componentType" : 5126,
            "count" : 20,
            "max" : [
                0.8333333333333334
            ],
            "min" : [
                0.041666666666666664
            ],
            "type" : "SCALAR"
        },
        {
            "bufferView" : 5,
            "componentType" : 5126,
            "count" : 20,
            "type" : "VEC3"
        },
        {
            "bufferView" : 6,
            "componentType" : 5126,
            "count" : 20,
            "type" : "VEC4"
        },
        {
            "bufferView" : 7,
            "componentType" : 5126,
            "count" : 20,
            "type" : "VEC3"
        },
        {
            "bufferView" : 8,
            "componentType" : 5126,
            "count" : 20,
            "type" : "VEC4"
        }
    ],
    "bufferViews" : [
        {
            "buffer" : 0,
            "byteLength" : 288,
            "byteOffset" : 0
        },
        {
            "buffer" : 0,
            "byteLength" : 288,
            "byteOffset" : 288
        },
        {
            "buffer" : 0,
            "byteLength" : 192,
            "byteOffset" : 576
        },
        {
            "buffer" : 0,
            "byteLength" : 72,
            "byteOffset" : 768
        },
        {
            "buffer" : 0,
            "byteLength" : 80,
            "byteOffset" : 840
        },
        {
            "buffer" : 0,
            "byteLength" : 240,
            "byteOffset" : 920
        },
        {
            "buffer" : 0,
            "byteLength" : 320,
            "byteOffset" : 1160
        },
        {
            "buffer" : 0,
            "byteLength" : 240,
            "byteOffset" : 1480
        },
        {
            "buffer" : 0,
            "byteLength" : 320,
            "byteOffset" : 1720
        }
    ],
    "buffers" : [
        {
            "byteLength" : 2040,
            "uri" : "Cube.bin"
        }
    ]
}
